<?xml version="1.0" encoding="UTF-8"?>
<svg width="62px" height="24px" viewBox="0 0 62 24" version="1.1" xmlns="http://www.w3.org/2000/svg" xmlns:xlink="http://www.w3.org/1999/xlink">
    <!-- Generator: Sketch 48.2 (47327) - http://www.bohemiancoding.com/sketch -->
    <title>ebby logo</title>
    <desc>Created with Sketch.</desc>
    <defs></defs>
    <g id="ebby-web" stroke="none" stroke-width="1" fill="none" fill-rule="evenodd" transform="translate(-40.000000, -40.000000)">
        <g id="ebby-logo" transform="translate(40.000000, 40.000000)">
            <path d="M15.4285714,11.8984127 L15.4285714,12.6603175 L2.66197183,12.6603175 C2.93360161,15.2761905 4.72635815,17.1301587 7.71428571,17.1301587 C9.64285714,17.1301587 11.6800805,16.368254 12.277666,14.5396825 L15.1026157,14.5396825 C14.5593561,17.9428571 10.8651911,18.8571429 7.8501006,18.8571429 C2.85211268,18.8571429 0,16.2920635 0,12.2539683 C0,7.60634921 2.98792757,5.14285714 7.93158954,5.14285714 C12.7665996,5.14285714 15.4285714,7.58095238 15.4285714,11.8984127 Z M2.77062374,10.9333333 L12.6036217,10.9333333 C12.5492958,7.98730159 10.2132797,6.86984127 7.87726358,6.86984127 C5.13380282,6.86984127 3.17806841,8.11428571 2.77062374,10.9333333 Z" id="e" fill="#E73039"></path>
            <path d="M15.5310869,15.3707345 L15.5310869,0 L18.0427148,0 L18.0427148,7.27819549 C19.6317038,5.59861191 21.6307546,5.11509543 23.6810631,5.11509543 C27.5253916,5.11509543 30.8571429,7.83805668 30.8571429,11.9861191 C30.8571429,16.1341816 27.5253916,18.8571429 23.6810631,18.8571429 C21.4000949,18.8571429 19.3497864,18.0427993 18.0427148,16.5668016 C18.0427148,17.1775593 17.991457,17.8392134 17.9401993,18.3736264 L15.4285714,18.3736264 C15.4798291,17.3302487 15.5310869,16.2359746 15.5310869,15.3707345 Z M18.1594684,11.9861191 C18.1594684,15.2180451 20.2610346,17.1266628 23.233982,17.1266628 C26.2325581,17.1266628 28.3084955,15.2180451 28.3084955,11.9861191 C28.3084955,8.75419318 26.2325581,6.84557548 23.233982,6.84557548 C20.2610346,6.84557548 18.1594684,8.75419318 18.1594684,11.9861191 Z" id="b" fill="#3167B1"></path>
            <path d="M30.9596583,15.3707345 L30.9596583,0 L33.4712862,0 L33.4712862,7.27819549 C35.0602753,5.59861191 37.0593261,5.11509543 39.1096346,5.11509543 C42.953963,5.11509543 46.2857143,7.83805668 46.2857143,11.9861191 C46.2857143,16.1341816 42.953963,18.8571429 39.1096346,18.8571429 C36.8286664,18.8571429 34.7783579,18.0427993 33.4712862,16.5668016 C33.4712862,17.1775593 33.4200285,17.8392134 33.3687708,18.3736264 L30.8571429,18.3736264 C30.9084006,17.3302487 30.9596583,16.2359746 30.9596583,15.3707345 Z M34.043664,11.9861191 C34.043664,15.2180451 36.1452302,17.1266628 39.1181775,17.1266628 C42.1167537,17.1266628 44.192691,15.2180451 44.192691,11.9861191 C44.192691,8.75419318 42.1167537,6.84557548 39.1181775,6.84557548 C36.1452302,6.84557548 34.043664,8.75419318 34.043664,11.9861191 Z" id="b" fill="#F5AF19"></path>
            <polygon id="y" fill="#86BA40" points="58.9544449 5.14285714 61.7142857 5.14285714 52.0813799 24 49.1623176 24 51.9221583 18.7830383 44.5714286 5.14285714 47.6497125 5.14285714 53.3286157 16.2289008"></polygon>
        </g>
    </g>
</svg>